<svg xmlns="http://www.w3.org/2000/svg" viewBox="0 0 64 64" role="img" aria-label="Food Order Management">
  <rect width="64" height="64" rx="16" fill="#ad2c00"/>
  <circle cx="32" cy="33" r="20" fill="#fff7ed"/>
  <circle cx="32" cy="33" r="14" fill="#fed7aa"/>
  <path d="M17 25h30a6 6 0 0 1 0 12H17a6 6 0 0 1 0-12Z" fill="#7c2d12"/>
  <path d="M20 22h24a7 7 0 0 1 7 7H13a7 7 0 0 1 7-7Z" fill="#f97316"/>
  <path d="M14 36h36l-3 8H17l-3-8Z" fill="#facc15"/>
  <path d="M21 20c2-5 7-7 13-7 7 0 11 3 13 8" fill="none" stroke="#fff7ed" stroke-width="4" stroke-linecap="round"/>
  <circle cx="24" cy="29" r="2" fill="#fff7ed"/>
  <circle cx="32" cy="29" r="2" fill="#fff7ed"/>
  <circle cx="40" cy="29" r="2" fill="#fff7ed"/>
</svg>
